<?xml version="1.0" standalone="no"?>
<!DOCTYPE svg PUBLIC "-//W3C//DTD SVG 20010904//EN"
 "http://www.w3.org/TR/2001/REC-SVG-20010904/DTD/svg10.dtd">
<svg version="1.0" xmlns="http://www.w3.org/2000/svg"
 width="512.000000pt" height="512.000000pt" viewBox="0 0 512.000000 512.000000"
 preserveAspectRatio="xMidYMid meet">
<metadata>
Created by potrace 1.14, written by Peter Selinger 2001-2017
</metadata>
<g transform="translate(0.000000,512.000000) scale(0.100000,-0.100000)"
fill="#000000" stroke="none">
<path d="M2340 4944 c-198 -24 -317 -48 -487 -100 -790 -241 -1413 -899 -1613
-1704 -54 -219 -65 -313 -65 -580 0 -273 11 -366 70 -595 214 -839 875 -1501
1716 -1719 230 -60 324 -71 599 -71 273 0 366 11 595 70 669 171 1249 642
1549 1259 80 165 126 287 170 457 60 230 71 324 71 599 0 275 -11 369 -71 599
-216 833 -871 1493 -1698 1712 -208 55 -330 71 -576 74 -124 2 -241 1 -260 -1z
m633 -178 c862 -165 1548 -811 1763 -1659 86 -339 86 -755 0 -1094 -142 -561
-497 -1047 -991 -1358 -217 -137 -510 -251 -772 -301 -186 -36 -515 -45 -698
-19 -426 59 -804 221 -1132 486 -444 359 -741 899 -813 1479 -13 109 -13 411
0 520 63 507 287 968 645 1325 347 346 770 559 1259 635 100 16 163 19 361 16
210 -3 257 -7 378 -30z"/>
<path d="M2375 4479 c-749 -72 -1402 -591 -1641 -1306 -233 -696 -54 -1456
465 -1973 691 -687 1754 -758 2533 -169 106 80 276 251 356 356 532 703 532
1642 1 2345 -80 106 -251 277 -357 357 -395 298 -873 436 -1357 390z m320
-119 c389 -32 730 -171 1030 -421 329 -275 540 -645 622 -1089 24 -131 24
-447 0 -580 -68 -375 -224 -686 -476 -952 -305 -321 -694 -513 -1130 -557
-507 -52 -1030 121 -1399 465 -590 547 -754 1404 -408 2119 278 572 844 962
1473 1014 140 12 155 12 288 1z"/>
<path d="M2517 4032 c-13 -15 -17 -39 -17 -114 l0 -95 -39 -26 c-23 -15 -47
-44 -60 -69 -20 -43 -21 -58 -21 -384 l0 -340 -293 296 c-161 162 -320 323
-352 357 -86 93 -163 122 -242 92 -34 -13 -80 -55 -99 -91 -18 -34 -18 -109 0
-151 7 -18 183 -204 392 -417 208 -212 441 -449 518 -528 157 -159 200 -188
272 -179 61 6 117 46 143 100 21 44 21 49 19 634 l-3 589 -27 41 c-15 23 -41
47 -57 54 l-31 14 0 101 c0 85 -3 103 -18 117 -24 22 -65 21 -85 -1z"/>
<path d="M1087 2602 c-22 -24 -21 -65 1 -85 16 -15 46 -17 214 -17 176 0 196
2 211 18 22 24 21 65 -1 85 -16 15 -46 17 -214 17 -176 0 -196 -2 -211 -18z"/>
<path d="M3612 2604 c-14 -10 -22 -26 -22 -44 0 -54 23 -60 232 -60 175 0 189
1 208 20 11 11 20 29 20 40 0 11 -9 29 -20 40 -19 19 -33 20 -208 20 -154 0
-192 -3 -210 -16z"/>
<path d="M2516 1508 c-13 -18 -16 -56 -16 -210 0 -175 1 -189 20 -208 25 -25
55 -25 80 0 19 19 20 33 20 208 0 209 -6 232 -60 232 -18 0 -34 -8 -44 -22z"/>
</g>
</svg>
